<svg width="143" height="70" viewBox="0 0 143 70" fill="none" xmlns="http://www.w3.org/2000/svg">
<path d="M3.17685 66.8672L0.263494 56.6854H2.61506L4.30043 63.7599H4.38494L6.24432 56.6854H8.25781L10.1122 63.7749H10.2017L11.8871 56.6854H14.2386L11.3253 66.8672H9.22727L7.28835 60.2102H7.20881L5.27486 66.8672H3.17685ZM18.0108 67.0163C17.2253 67.0163 16.5492 66.8572 15.9824 66.5391C15.419 66.2176 14.9848 65.7635 14.6799 65.1768C14.3749 64.5869 14.2225 63.8892 14.2225 63.0838C14.2225 62.2983 14.3749 61.6089 14.6799 61.0156C14.9848 60.4223 15.414 59.96 15.9675 59.6286C16.5243 59.2971 17.1773 59.1314 17.9263 59.1314C18.4301 59.1314 18.8991 59.2126 19.3333 59.375C19.7708 59.5341 20.1519 59.7744 20.4767 60.0959C20.8049 60.4174 21.0601 60.8217 21.2424 61.3089C21.4247 61.7929 21.5158 62.3596 21.5158 63.0092V63.5909H15.0676V62.2784H19.5222C19.5222 61.9735 19.4559 61.7034 19.3233 61.468C19.1908 61.2327 19.0068 61.0488 18.7715 60.9162C18.5395 60.7803 18.2694 60.7124 17.9611 60.7124C17.6396 60.7124 17.3546 60.7869 17.106 60.9361C16.8607 61.0819 16.6685 61.2791 16.5293 61.5277C16.3901 61.773 16.3188 62.0464 16.3155 62.348V63.5959C16.3155 63.9737 16.3851 64.3002 16.5243 64.5753C16.6668 64.8504 16.8674 65.0625 17.1259 65.2116C17.3844 65.3608 17.691 65.4354 18.0456 65.4354C18.281 65.4354 18.4964 65.4022 18.6919 65.3359C18.8875 65.2696 19.0549 65.1702 19.1941 65.0376C19.3333 64.9051 19.4393 64.7427 19.5123 64.5504L21.4711 64.6797C21.3716 65.1503 21.1678 65.5613 20.8596 65.9126C20.5546 66.2607 20.1602 66.5324 19.6763 66.728C19.1957 66.9202 18.6406 67.0163 18.0108 67.0163ZM22.9377 66.8672V56.6854H25.0556V60.5135H25.1202C25.213 60.308 25.3472 60.0992 25.5229 59.8871C25.7019 59.6716 25.9339 59.4927 26.2189 59.3501C26.5073 59.2043 26.8652 59.1314 27.2928 59.1314C27.8496 59.1314 28.3633 59.2772 28.834 59.5689C29.3046 59.8572 29.6808 60.2931 29.9625 60.8764C30.2443 61.4564 30.3851 62.1839 30.3851 63.0589C30.3851 63.9107 30.2476 64.63 29.9725 65.2166C29.7007 65.8 29.3295 66.2424 28.8588 66.544C28.3915 66.8423 27.8678 66.9915 27.2878 66.9915C26.8768 66.9915 26.5272 66.9235 26.2388 66.7876C25.9538 66.6518 25.7201 66.4811 25.5378 66.2756C25.3555 66.0668 25.2163 65.8563 25.1202 65.6442H25.0257V66.8672H22.9377ZM25.0108 63.049C25.0108 63.5031 25.0738 63.8991 25.1998 64.2372C25.3257 64.5753 25.508 64.8388 25.7466 65.0277C25.9853 65.2133 26.2753 65.3061 26.6167 65.3061C26.9614 65.3061 27.253 65.2116 27.4917 65.0227C27.7303 64.8305 27.9109 64.5653 28.0336 64.2273C28.1595 63.8859 28.2225 63.4931 28.2225 63.049C28.2225 62.6082 28.1612 62.2204 28.0385 61.8857C27.9159 61.5509 27.7353 61.2891 27.4966 61.1001C27.258 60.9112 26.9647 60.8168 26.6167 60.8168C26.272 60.8168 25.9803 60.9079 25.7417 61.0902C25.5063 61.2725 25.3257 61.531 25.1998 61.8658C25.0738 62.2005 25.0108 62.5949 25.0108 63.049ZM31.8381 66.8672V56.6854H38.6989V58.4602H33.9908V60.8864H38.3459V62.6612H33.9908V65.0923H38.7188V66.8672H31.8381ZM42.1404 59.2308L43.5424 61.9006L44.9792 59.2308H47.1518L44.9395 63.049L47.2115 66.8672H45.0488L43.5424 64.2273L42.0609 66.8672H39.8734L42.1404 63.049L39.9529 59.2308H42.1404ZM51.3018 58.4602V56.6854H59.6641V58.4602H56.5469V66.8672H54.419V58.4602H51.3018ZM63.3741 67.0163C62.5886 67.0163 61.9125 66.8572 61.3457 66.5391C60.7823 66.2176 60.3481 65.7635 60.0431 65.1768C59.7382 64.5869 59.5858 63.8892 59.5858 63.0838C59.5858 62.2983 59.7382 61.6089 60.0431 61.0156C60.3481 60.4223 60.7773 59.96 61.3308 59.6286C61.8876 59.2971 62.5405 59.1314 63.2896 59.1314C63.7934 59.1314 64.2624 59.2126 64.6966 59.375C65.1341 59.5341 65.5152 59.7744 65.84 60.0959C66.1681 60.4174 66.4234 60.8217 66.6056 61.3089C66.7879 61.7929 66.8791 62.3596 66.8791 63.0092V63.5909H60.4309V62.2784H64.8855C64.8855 61.9735 64.8192 61.7034 64.6866 61.468C64.554 61.2327 64.3701 61.0488 64.1348 60.9162C63.9028 60.7803 63.6326 60.7124 63.3244 60.7124C63.0029 60.7124 62.7179 60.7869 62.4693 60.9361C62.224 61.0819 62.0318 61.2791 61.8926 61.5277C61.7534 61.773 61.6821 62.0464 61.6788 62.348V63.5959C61.6788 63.9737 61.7484 64.3002 61.8876 64.5753C62.0301 64.8504 62.2306 65.0625 62.4892 65.2116C62.7477 65.3608 63.0543 65.4354 63.4089 65.4354C63.6442 65.4354 63.8597 65.4022 64.0552 65.3359C64.2508 65.2696 64.4181 65.1702 64.5574 65.0376C64.6966 64.9051 64.8026 64.7427 64.8755 64.5504L66.8343 64.6797C66.7349 65.1503 66.5311 65.5613 66.2228 65.9126C65.9179 66.2607 65.5235 66.5324 65.0396 66.728C64.559 66.9202 64.0038 67.0163 63.3741 67.0163ZM71.7115 67.0163C70.9293 67.0163 70.2565 66.8506 69.693 66.5192C69.1329 66.1844 68.702 65.7204 68.4004 65.1271C68.1021 64.5339 67.9529 63.8511 67.9529 63.0788C67.9529 62.2966 68.1038 61.6106 68.4054 61.0206C68.7103 60.4273 69.1428 59.965 69.7029 59.6335C70.2631 59.2988 70.9293 59.1314 71.7015 59.1314C72.3677 59.1314 72.9511 59.2524 73.4515 59.4943C73.952 59.7363 74.3481 60.076 74.6397 60.5135C74.9314 60.951 75.0922 61.4647 75.122 62.0547H73.1234C73.0671 61.6735 72.9179 61.367 72.676 61.1349C72.4373 60.8996 72.1241 60.782 71.7363 60.782C71.4082 60.782 71.1215 60.8714 70.8762 61.0504C70.6343 61.2261 70.4454 61.483 70.3095 61.821C70.1736 62.1591 70.1056 62.5684 70.1056 63.049C70.1056 63.5362 70.1719 63.9505 70.3045 64.2919C70.4404 64.6333 70.631 64.8935 70.8762 65.0724C71.1215 65.2514 71.4082 65.3409 71.7363 65.3409C71.9783 65.3409 72.1954 65.2912 72.3876 65.1918C72.5832 65.0923 72.7439 64.9482 72.8699 64.7592C72.9991 64.567 73.0836 64.3366 73.1234 64.0682H75.122C75.0888 64.6515 74.9297 65.1652 74.6447 65.6094C74.363 66.0502 73.9735 66.3949 73.4764 66.6435C72.9792 66.892 72.3909 67.0163 71.7115 67.0163ZM78.5959 62.4524V66.8672H76.478V56.6854H78.5362V60.5781H78.6257C78.7981 60.1274 79.0765 59.7744 79.4609 59.5192C79.8454 59.2607 80.3277 59.1314 80.9077 59.1314C81.438 59.1314 81.9003 59.2474 82.2947 59.4794C82.6925 59.7081 83.0007 60.0379 83.2195 60.4688C83.4415 60.8963 83.5509 61.4084 83.5476 62.005V66.8672H81.4297V62.3828C81.433 61.9122 81.3137 61.5459 81.0717 61.2841C80.8331 61.0223 80.4983 60.8913 80.0675 60.8913C79.7791 60.8913 79.5239 60.9527 79.3018 61.0753C79.0831 61.1979 78.9107 61.3769 78.7848 61.6122C78.6622 61.8442 78.5992 62.1243 78.5959 62.4524ZM87.3322 62.4524V66.8672H85.2143V59.2308H87.2328V60.5781H87.3223C87.4913 60.134 87.7747 59.7827 88.1724 59.5241C88.5701 59.2623 89.0524 59.1314 89.6191 59.1314C90.1494 59.1314 90.6118 59.2474 91.0062 59.4794C91.4006 59.7114 91.7072 60.0429 91.926 60.4737C92.1447 60.9013 92.2541 61.4117 92.2541 62.005V66.8672H90.1362V62.3828C90.1395 61.9155 90.0202 61.5509 89.7782 61.2891C89.5363 61.0239 89.2032 60.8913 88.7789 60.8913C88.4939 60.8913 88.242 60.9527 88.0233 61.0753C87.8078 61.1979 87.6388 61.3769 87.5162 61.6122C87.3968 61.8442 87.3355 62.1243 87.3322 62.4524ZM97.3736 67.0163C96.6013 67.0163 95.9335 66.8523 95.37 66.5241C94.8099 66.1927 94.3774 65.732 94.0724 65.142C93.7675 64.5488 93.6151 63.861 93.6151 63.0788C93.6151 62.29 93.7675 61.6006 94.0724 61.0107C94.3774 60.4174 94.8099 59.9567 95.37 59.6286C95.9335 59.2971 96.6013 59.1314 97.3736 59.1314C98.1458 59.1314 98.812 59.2971 99.3722 59.6286C99.9356 59.9567 100.37 60.4174 100.675 61.0107C100.98 61.6006 101.132 62.29 101.132 63.0788C101.132 63.861 100.98 64.5488 100.675 65.142C100.37 65.732 99.9356 66.1927 99.3722 66.5241C98.812 66.8523 98.1458 67.0163 97.3736 67.0163ZM97.3835 65.3757C97.7348 65.3757 98.0282 65.2763 98.2635 65.0774C98.4988 64.8752 98.6761 64.6001 98.7955 64.2521C98.9181 63.9041 98.9794 63.508 98.9794 63.0639C98.9794 62.6198 98.9181 62.2237 98.7955 61.8757C98.6761 61.5277 98.4988 61.2526 98.2635 61.0504C98.0282 60.8482 97.7348 60.7472 97.3835 60.7472C97.0289 60.7472 96.7306 60.8482 96.4886 61.0504C96.25 61.2526 96.0694 61.5277 95.9467 61.8757C95.8274 62.2237 95.7678 62.6198 95.7678 63.0639C95.7678 63.508 95.8274 63.9041 95.9467 64.2521C96.0694 64.6001 96.25 64.8752 96.4886 65.0774C96.7306 65.2763 97.0289 65.3757 97.3835 65.3757ZM104.627 56.6854V66.8672H102.509V56.6854H104.627ZM109.774 67.0163C109.002 67.0163 108.334 66.8523 107.77 66.5241C107.21 66.1927 106.778 65.732 106.473 65.142C106.168 64.5488 106.015 63.861 106.015 63.0788C106.015 62.29 106.168 61.6006 106.473 61.0107C106.778 60.4174 107.21 59.9567 107.77 59.6286C108.334 59.2971 109.002 59.1314 109.774 59.1314C110.546 59.1314 111.212 59.2971 111.773 59.6286C112.336 59.9567 112.77 60.4174 113.075 61.0107C113.38 61.6006 113.532 62.29 113.532 63.0788C113.532 63.861 113.38 64.5488 113.075 65.142C112.77 65.732 112.336 66.1927 111.773 66.5241C111.212 66.8523 110.546 67.0163 109.774 67.0163ZM109.784 65.3757C110.135 65.3757 110.429 65.2763 110.664 65.0774C110.899 64.8752 111.077 64.6001 111.196 64.2521C111.318 63.9041 111.38 63.508 111.38 63.0639C111.38 62.6198 111.318 62.2237 111.196 61.8757C111.077 61.5277 110.899 61.2526 110.664 61.0504C110.429 60.8482 110.135 60.7472 109.784 60.7472C109.429 60.7472 109.131 60.8482 108.889 61.0504C108.65 61.2526 108.47 61.5277 108.347 61.8757C108.228 62.2237 108.168 62.6198 108.168 63.0639C108.168 63.508 108.228 63.9041 108.347 64.2521C108.47 64.6001 108.65 64.8752 108.889 65.0774C109.131 65.2763 109.429 65.3757 109.784 65.3757ZM118.35 69.8899C117.664 69.8899 117.076 69.7955 116.585 69.6065C116.098 69.4209 115.71 69.1674 115.422 68.8459C115.133 68.5244 114.946 68.1631 114.86 67.7621L116.819 67.4986C116.878 67.651 116.973 67.7936 117.102 67.9261C117.231 68.0587 117.402 68.1648 117.614 68.2443C117.83 68.3272 118.091 68.3686 118.4 68.3686C118.86 68.3686 119.24 68.2559 119.538 68.0305C119.84 67.8085 119.991 67.4356 119.991 66.9119V65.5149H119.901C119.808 65.727 119.669 65.9276 119.483 66.1165C119.298 66.3054 119.059 66.4595 118.768 66.5788C118.476 66.6982 118.128 66.7578 117.724 66.7578C117.15 66.7578 116.628 66.6252 116.157 66.3601C115.69 66.0916 115.317 65.6823 115.039 65.1321C114.764 64.5786 114.626 63.8793 114.626 63.0341C114.626 62.169 114.767 61.4465 115.049 60.8665C115.331 60.2865 115.705 59.8523 116.172 59.5639C116.643 59.2756 117.158 59.1314 117.719 59.1314C118.146 59.1314 118.504 59.2043 118.792 59.3501C119.081 59.4927 119.313 59.6716 119.488 59.8871C119.667 60.0992 119.805 60.308 119.901 60.5135H119.981V59.2308H122.084V66.9418C122.084 67.5914 121.925 68.1349 121.606 68.5724C121.288 69.0099 120.847 69.3381 120.284 69.5568C119.724 69.7789 119.079 69.8899 118.35 69.8899ZM118.395 65.1669C118.736 65.1669 119.024 65.0824 119.26 64.9134C119.498 64.741 119.681 64.4957 119.807 64.1776C119.936 63.8561 120.001 63.4716 120.001 63.0241C120.001 62.5767 119.938 62.1889 119.812 61.8608C119.686 61.5294 119.503 61.2725 119.265 61.0902C119.026 60.9079 118.736 60.8168 118.395 60.8168C118.047 60.8168 117.753 60.9112 117.515 61.1001C117.276 61.2857 117.095 61.5443 116.973 61.8757C116.85 62.2071 116.789 62.59 116.789 63.0241C116.789 63.465 116.85 63.8461 116.973 64.1676C117.099 64.4858 117.279 64.7327 117.515 64.9084C117.753 65.0807 118.047 65.1669 118.395 65.1669ZM123.769 66.8672V59.2308H125.887V66.8672H123.769ZM124.833 58.2464C124.518 58.2464 124.248 58.142 124.023 57.9332C123.8 57.7211 123.689 57.4676 123.689 57.1726C123.689 56.8809 123.8 56.6307 124.023 56.4219C124.248 56.2098 124.518 56.1037 124.833 56.1037C125.148 56.1037 125.416 56.2098 125.638 56.4219C125.864 56.6307 125.976 56.8809 125.976 57.1726C125.976 57.4676 125.864 57.7211 125.638 57.9332C125.416 58.142 125.148 58.2464 124.833 58.2464ZM131.064 67.0163C130.278 67.0163 129.602 66.8572 129.035 66.5391C128.472 66.2176 128.038 65.7635 127.733 65.1768C127.428 64.5869 127.275 63.8892 127.275 63.0838C127.275 62.2983 127.428 61.6089 127.733 61.0156C128.038 60.4223 128.467 59.96 129.02 59.6286C129.577 59.2971 130.23 59.1314 130.979 59.1314C131.483 59.1314 131.952 59.2126 132.386 59.375C132.824 59.5341 133.205 59.7744 133.529 60.0959C133.858 60.4174 134.113 60.8217 134.295 61.3089C134.477 61.7929 134.569 62.3596 134.569 63.0092V63.5909H128.12V62.2784H132.575C132.575 61.9735 132.509 61.7034 132.376 61.468C132.243 61.2327 132.06 61.0488 131.824 60.9162C131.592 60.7803 131.322 60.7124 131.014 60.7124C130.692 60.7124 130.407 60.7869 130.159 60.9361C129.913 61.0819 129.721 61.2791 129.582 61.5277C129.443 61.773 129.372 62.0464 129.368 62.348V63.5959C129.368 63.9737 129.438 64.3002 129.577 64.5753C129.72 64.8504 129.92 65.0625 130.179 65.2116C130.437 65.3608 130.744 65.4354 131.098 65.4354C131.334 65.4354 131.549 65.4022 131.745 65.3359C131.94 65.2696 132.108 65.1702 132.247 65.0376C132.386 64.9051 132.492 64.7427 132.565 64.5504L134.524 64.6797C134.424 65.1503 134.221 65.5613 133.912 65.9126C133.607 66.2607 133.213 66.5324 132.729 66.728C132.248 66.9202 131.693 67.0163 131.064 67.0163ZM142.304 61.4084L140.365 61.5277C140.332 61.362 140.261 61.2128 140.152 61.0803C140.042 60.9444 139.898 60.8366 139.719 60.7571C139.543 60.6742 139.333 60.6328 139.088 60.6328C138.76 60.6328 138.483 60.7024 138.257 60.8416C138.032 60.9775 137.919 61.1598 137.919 61.3885C137.919 61.5708 137.992 61.7249 138.138 61.8509C138.284 61.9768 138.534 62.0779 138.889 62.1541L140.271 62.4325C141.013 62.585 141.567 62.8303 141.931 63.1683C142.296 63.5064 142.478 63.9505 142.478 64.5007C142.478 65.0012 142.331 65.4403 142.036 65.8182C141.744 66.196 141.343 66.491 140.833 66.7031C140.326 66.9119 139.741 67.0163 139.078 67.0163C138.067 67.0163 137.261 66.8059 136.662 66.3849C136.065 65.9607 135.715 65.384 135.613 64.6548L137.696 64.5455C137.759 64.8537 137.911 65.089 138.153 65.2514C138.395 65.4105 138.705 65.4901 139.083 65.4901C139.454 65.4901 139.752 65.4188 139.978 65.2763C140.206 65.1304 140.322 64.9432 140.326 64.7145C140.322 64.5223 140.241 64.3648 140.082 64.2422C139.923 64.1162 139.678 64.0201 139.346 63.9538L138.024 63.6903C137.278 63.5412 136.723 63.2827 136.358 62.9148C135.997 62.5469 135.816 62.0779 135.816 61.5078C135.816 61.0173 135.949 60.5947 136.214 60.2401C136.483 59.8854 136.859 59.612 137.343 59.4197C137.83 59.2275 138.4 59.1314 139.053 59.1314C140.017 59.1314 140.776 59.3352 141.33 59.7429C141.887 60.1506 142.212 60.7057 142.304 61.4084Z" fill="#605E5C"/>
<path d="M30 0L42.7538 10.1458L30 20.6288V0Z" fill="#605E5C"/>
<path d="M43.8018 10.9839L56.912 21.4162L43.8018 32.1088V10.9839Z" fill="#C1C1C1"/>
<path d="M43.3474 10.6289L30.3157 21.387L43.3474 31.7473V10.6289Z" fill="#949293"/>
<path d="M71.2406 11.0527L58.3004 21.7355L71.2406 32.2284V11.0527Z" fill="#A8A8A8"/>
<path d="M57.3159 21.6899L44.258 32.471L57.3159 42.8672V21.6899Z" fill="#DEDEDD"/>
<path d="M57.7567 22.0889L70.6969 32.3738L57.7567 42.8667V22.0889Z" fill="#6C6A68"/>
<path d="M113 0L100.245 10.1458L113 20.6288V0Z" fill="#605E5C"/>
<path d="M99.1971 10.9839L86.0869 21.4162L99.1971 32.1088V10.9839Z" fill="#C1C1C1"/>
<path d="M99.6519 10.6284L112.685 21.3865L99.6519 31.7468V10.6284Z" fill="#949293"/>
<path d="M71.7585 11.0527L84.6987 21.7355L71.7585 32.2284V11.0527Z" fill="#A8A8A8"/>
<path d="M85.684 21.6899L98.7435 32.471L85.684 42.8672V21.6899Z" fill="#DEDEDE"/>
<path d="M85.2427 22.0889L72.3025 32.3738L85.2427 42.8667V22.0889Z" fill="#6C6A68"/>
</svg>
